<mxfile host="app.diagrams.net" agent="Mozilla/5.0 (X11; Linux x86_64) AppleWebKit/537.36 (KHTML, like Gecko) Chrome/139.0.0.0 Safari/537.36 Edg/139.0.0.0" version="28.0.9">
  <diagram name="ページ1" id="hCpk6Jpd1-Z-UScxSjxb">
    <mxGraphModel dx="1765" dy="1153" grid="1" gridSize="10" guides="1" tooltips="1" connect="1" arrows="1" fold="1" page="1" pageScale="1" pageWidth="827" pageHeight="1169" math="0" shadow="0">
      <root>
        <mxCell id="0" />
        <mxCell id="1" parent="0" />
        <mxCell id="9DUv8hFPbeTyUt1-KWza-1" value="" style="rounded=0;whiteSpace=wrap;html=1;" vertex="1" parent="1">
          <mxGeometry x="80" y="320" width="420" height="160" as="geometry" />
        </mxCell>
        <mxCell id="9DUv8hFPbeTyUt1-KWza-2" value="&lt;font face=&quot;Helvetica&quot;&gt;issue-101用&lt;/font&gt;&lt;div&gt;&lt;font face=&quot;Helvetica&quot;&gt;ディレクトリ&lt;/font&gt;&lt;/div&gt;" style="rounded=1;whiteSpace=wrap;html=1;" vertex="1" parent="1">
          <mxGeometry x="90" y="410" width="120" height="60" as="geometry" />
        </mxCell>
        <mxCell id="9DUv8hFPbeTyUt1-KWza-3" value="&lt;font face=&quot;Helvetica&quot;&gt;issue-102用&lt;/font&gt;&lt;div&gt;&lt;font face=&quot;Helvetica&quot;&gt;ディレクトリ&lt;/font&gt;&lt;/div&gt;" style="rounded=1;whiteSpace=wrap;html=1;" vertex="1" parent="1">
          <mxGeometry x="230" y="410" width="120" height="60" as="geometry" />
        </mxCell>
        <mxCell id="9DUv8hFPbeTyUt1-KWza-4" value="&lt;font face=&quot;Helvetica&quot;&gt;issue-103用&lt;/font&gt;&lt;div&gt;&lt;font face=&quot;Helvetica&quot;&gt;ディレクトリ&lt;/font&gt;&lt;/div&gt;" style="rounded=1;whiteSpace=wrap;html=1;" vertex="1" parent="1">
          <mxGeometry x="370" y="410" width="120" height="60" as="geometry" />
        </mxCell>
        <mxCell id="9DUv8hFPbeTyUt1-KWza-6" value="docker ( web )" style="swimlane;whiteSpace=wrap;html=1;" vertex="1" parent="1">
          <mxGeometry x="90" y="330" width="120" height="70" as="geometry" />
        </mxCell>
        <mxCell id="9DUv8hFPbeTyUt1-KWza-7" value="" style="endArrow=classic;html=1;rounded=0;" edge="1" parent="1">
          <mxGeometry width="50" height="50" relative="1" as="geometry">
            <mxPoint x="100" y="430" as="sourcePoint" />
            <mxPoint x="100" y="370" as="targetPoint" />
          </mxGeometry>
        </mxCell>
        <mxCell id="9DUv8hFPbeTyUt1-KWza-8" value="マウント" style="edgeLabel;html=1;align=center;verticalAlign=middle;resizable=0;points=[];" vertex="1" connectable="0" parent="9DUv8hFPbeTyUt1-KWza-7">
          <mxGeometry x="-0.1667" y="-2" relative="1" as="geometry">
            <mxPoint as="offset" />
          </mxGeometry>
        </mxCell>
        <mxCell id="9DUv8hFPbeTyUt1-KWza-9" value="" style="endArrow=classic;html=1;rounded=0;" edge="1" parent="1">
          <mxGeometry width="50" height="50" relative="1" as="geometry">
            <mxPoint x="200" y="380" as="sourcePoint" />
            <mxPoint x="200" y="500" as="targetPoint" />
          </mxGeometry>
        </mxCell>
        <mxCell id="9DUv8hFPbeTyUt1-KWza-17" value="ポート8080を転送" style="edgeLabel;html=1;align=center;verticalAlign=middle;resizable=0;points=[];" vertex="1" connectable="0" parent="9DUv8hFPbeTyUt1-KWza-9">
          <mxGeometry x="0.7167" y="3" relative="1" as="geometry">
            <mxPoint as="offset" />
          </mxGeometry>
        </mxCell>
        <mxCell id="9DUv8hFPbeTyUt1-KWza-14" value="ブラウザ" style="swimlane;whiteSpace=wrap;html=1;" vertex="1" parent="1">
          <mxGeometry x="140" y="500" width="120" height="60" as="geometry" />
        </mxCell>
      </root>
    </mxGraphModel>
  </diagram>
</mxfile>
